<?xml version="1.0" standalone="no"?>
<!DOCTYPE svg PUBLIC "-//W3C//DTD SVG 20010904//EN"
 "http://www.w3.org/TR/2001/REC-SVG-20010904/DTD/svg10.dtd">
<svg version="1.0" xmlns="http://www.w3.org/2000/svg"
 width="330.000000pt" height="126.000000pt" viewBox="0 0 330.000000 126.000000"
 preserveAspectRatio="xMidYMid meet">

<g transform="translate(0.000000,126.000000) scale(0.100000,-0.100000)"
fill="#000000" stroke="none">
<path d="M2620 1020 l0 -160 -681 0 c-540 0 -680 -3 -677 -12 4 -10 151 -14
681 -16 l677 -2 0 -165 0 -165 80 0 80 0 0 -155 0 -155 -765 0 -765 0 0 325 0
325 -562 -2 -563 -3 -2 -322 c-1 -177 1 -324 5 -327 4 -2 607 -8 1340 -12
l1331 -7 3 164 3 164 208 3 207 2 0 340 0 340 -300 0 -300 0 0 -160z m221 -3
c23 -32 46 -56 52 -54 7 2 14 23 17 48 4 38 6 41 12 19 4 -14 8 -35 8 -47 0
-41 26 -24 75 47 27 39 50 70 52 70 2 0 -18 -40 -44 -89 -26 -49 -46 -92 -43
-95 3 -2 22 -1 43 3 43 10 41 -1 -3 -19 -17 -7 -29 -17 -27 -23 2 -6 37 -28
78 -49 83 -42 82 -48 -4 -18 -94 33 -101 28 -67 -43 l21 -42 -32 38 c-17 20
-35 37 -40 37 -5 0 -9 -21 -9 -47 0 -27 -4 -66 -8 -88 -6 -35 -8 -29 -12 44
-3 52 -10 86 -17 88 -6 2 -23 -13 -37 -34 -31 -45 -34 -37 -6 17 12 24 16 41
10 45 -9 5 -52 -4 -137 -31 -10 -3 13 12 51 33 39 21 72 43 74 50 2 6 -14 21
-35 32 -36 20 -36 21 -8 15 17 -3 36 -7 43 -10 24 -7 12 36 -33 118 -46 86
-42 84 26 -15z m-1717 -385 c3 -5 19 -7 36 -4 28 4 30 2 30 -27 0 -28 -3 -31
-30 -31 -16 0 -30 5 -30 11 0 6 -7 9 -15 5 -8 -3 -19 2 -24 12 -12 21 -17 16
-26 -25 -6 -29 -4 -33 14 -33 14 0 21 -6 21 -20 0 -14 -7 -20 -21 -20 -19 0
-20 -5 -17 -82 2 -46 7 -91 12 -100 7 -16 2 -18 -43 -18 -47 0 -65 10 -41 25
6 3 10 44 10 91 0 49 -4 84 -10 84 -5 0 -10 7 -10 15 0 8 4 15 8 15 4 0 13 19
19 43 8 28 20 47 35 55 28 13 75 15 82 4z m-594 -32 c15 -15 20 -33 20 -69 0
-43 -4 -53 -31 -75 -18 -15 -43 -26 -60 -26 -23 0 -29 -5 -30 -22 -2 -41 3
-73 12 -83 19 -19 8 -25 -46 -25 -51 0 -69 10 -45 25 6 4 10 60 10 135 0 75
-4 131 -10 135 -27 17 -2 25 75 25 72 0 88 -3 105 -20z m130 -75 c0 -12 4 -12
28 2 38 22 62 12 62 -27 0 -22 -5 -30 -18 -30 -10 0 -23 5 -29 11 -7 7 -19 9
-27 6 -13 -5 -16 -22 -16 -81 0 -41 5 -78 10 -81 23 -14 7 -25 -40 -25 -47 0
-63 11 -40 25 6 3 10 44 10 90 0 46 -4 87 -10 90 -5 3 -10 13 -10 21 0 10 12
14 40 14 28 0 40 -4 40 -15z m261 -14 c25 -26 29 -37 29 -86 0 -31 -7 -69 -15
-84 -31 -60 -129 -60 -160 -1 -30 58 -12 163 32 189 35 20 83 13 114 -18z
m269 -75 c0 -59 4 -108 10 -111 23 -14 7 -25 -40 -25 -47 0 -63 11 -40 25 6 3
10 46 10 96 0 53 -4 89 -10 89 -5 0 -10 7 -10 15 0 11 11 15 40 15 l40 0 0
-104z"/>
<path d="M428 585 c-6 -6 -1 -115 6 -122 3 -3 17 2 31 11 43 28 31 116 -15
116 -9 0 -19 -2 -22 -5z"/>
<path d="M829 483 c-14 -35 -5 -132 14 -150 12 -12 16 -12 31 2 19 19 23 124
6 156 -15 27 -39 24 -51 -8z"/>
<path d="M1314 597 c-21 -19 -27 -32 -27 -67 0 -39 5 -47 57 -95 58 -54 65
-69 43 -99 -18 -24 -59 -17 -72 12 -15 34 -35 27 -35 -12 0 -26 5 -35 23 -40
37 -10 77 -7 106 9 34 17 41 33 41 87 0 34 -6 46 -37 74 -20 19 -40 34 -45 34
-14 0 -30 42 -24 66 9 33 50 33 72 -1 22 -34 34 -31 34 9 0 38 -12 46 -70 46
-26 0 -48 -8 -66 -23z"/>
<path d="M1690 596 c0 -30 13 -40 40 -31 13 4 20 15 20 31 0 20 -5 24 -30 24
-25 0 -30 -4 -30 -24z"/>
<path d="M1519 501 c-26 -26 -29 -36 -29 -91 0 -74 18 -107 66 -116 38 -7 84
16 84 41 0 18 -5 19 -30 3 -37 -23 -55 0 -58 76 -3 64 7 96 29 96 5 0 14 -11
19 -25 13 -33 40 -22 40 16 0 28 -2 29 -46 29 -37 0 -51 -5 -75 -29z"/>
<path d="M1670 521 c0 -6 5 -13 10 -16 13 -8 13 -182 0 -190 -20 -12 1 -25 40
-25 39 0 60 13 40 25 -6 4 -10 51 -10 111 l0 104 -40 0 c-22 0 -40 -4 -40 -9z"/>
<path d="M1826 499 c-21 -25 -26 -41 -26 -84 0 -86 29 -125 93 -125 28 0 67
26 67 46 0 16 -16 19 -25 4 -20 -32 -85 8 -85 52 0 15 9 18 60 18 l60 0 0 34
c0 83 -91 118 -144 55z m84 -15 c15 -39 13 -44 -26 -44 -32 0 -35 2 -28 23 15
51 39 60 54 21z"/>
<path d="M2000 520 c0 -5 5 -10 11 -10 7 0 10 -36 8 -107 l-3 -108 28 -3 c39
-5 63 5 48 20 -19 19 -15 153 4 173 12 12 19 13 30 4 18 -15 20 -159 2 -177
-15 -15 9 -25 48 -20 l28 3 -3 90 c-1 50 -8 101 -14 115 -15 31 -61 39 -88 14
-17 -16 -19 -16 -19 -1 0 13 -9 17 -40 17 -22 0 -40 -4 -40 -10z"/>
<path d="M2285 507 c-55 -47 -42 -195 19 -211 36 -10 52 -7 80 15 33 26 25 41
-15 26 -27 -11 -32 -10 -45 7 -18 26 -18 126 0 151 14 19 15 19 41 -9 29 -32
49 -25 43 15 -3 21 -9 24 -49 27 -37 2 -52 -2 -74 -21z"/>
<path d="M2464 503 c-30 -32 -38 -62 -31 -114 11 -83 69 -119 136 -85 33 18
45 54 14 41 -60 -25 -93 -10 -93 42 0 21 4 23 60 23 58 0 60 1 60 25 0 33 -25
81 -45 89 -37 14 -76 6 -101 -21z m74 -5 c7 -7 12 -22 12 -35 0 -19 -5 -23
-30 -23 -32 0 -38 16 -20 51 12 22 21 24 38 7z"/>
</g>
</svg>
